<svg xmlns="http://www.w3.org/2000/svg" xmlns:xlink="http://www.w3.org/1999/xlink" width="150" height="150" viewBox="0 0 150 150"><defs><clipPath id="b"><rect width="150" height="150"/></clipPath></defs><g id="a" clip-path="url(#b)"><g transform="translate(45.801 33.94)"><path d="M50.533,13.194,23.083-.27-4.5,11.7V33.954L24.988,52.013l26.445-14.9Z" transform="translate(4.744 1.536)" fill="#6483c0"/><line y1="13.322" x2="25.535" transform="translate(30.22 14.566)" fill="none" stroke="#000" stroke-linecap="round" stroke-width="3"/><line y1="13.322" x2="25.535" transform="translate(30.22 40.101)" fill="none" stroke="#000" stroke-linecap="round" stroke-width="3"/><line x1="26.645" y1="14.433" transform="translate(2.465 13.456)" fill="none" stroke="#000" stroke-linecap="round" stroke-width="3"/><line x1="28.865" y1="17.763" transform="translate(0.245 36.342)" fill="none" stroke="#000" stroke-linecap="round" stroke-width="3"/><path d="M-1.9-.418V22.824" transform="translate(1.902 13.41)" fill="none" stroke="#000" stroke-linecap="round" stroke-width="3"/><line y2="25.535" transform="translate(55.755 14.566)" fill="none" stroke="#000" stroke-linecap="round" stroke-width="3"/><line x1="27.755" y2="12.212" transform="translate(0.245 0.134)" fill="none" stroke="#000" stroke-linecap="round" stroke-width="3"/><path d="M.313-1.12l27.436,14.41" transform="translate(28.034 1.12)" fill="none" stroke="#000" stroke-linecap="round" stroke-width="3"/><path d="M0,0,.273,23.569" transform="translate(29.312 28.999)" fill="none" stroke="#000" stroke-linecap="round" stroke-width="3"/></g><g transform="translate(3.613 58.365)"><path d="M50.533,13.194,23.083-.27-4.5,11.7V33.954L24.988,52.013l26.445-14.9Z" transform="translate(4.744 1.536)" fill="#d87b30"/><line y1="13.322" x2="25.535" transform="translate(30.22 14.566)" fill="none" stroke="#000" stroke-linecap="round" stroke-width="3"/><line y1="13.322" x2="25.535" transform="translate(30.22 40.101)" fill="none" stroke="#000" stroke-linecap="round" stroke-width="3"/><line x1="26.645" y1="14.433" transform="translate(2.465 13.456)" fill="none" stroke="#000" stroke-linecap="round" stroke-width="3"/><line x1="28.865" y1="17.763" transform="translate(0.245 36.342)" fill="none" stroke="#000" stroke-linecap="round" stroke-width="3"/><path d="M-1.9-.418V22.824" transform="translate(1.902 13.41)" fill="#d87b30" stroke="#000" stroke-linecap="round" stroke-width="3"/><line y2="25.535" transform="translate(55.755 14.566)" fill="none" stroke="#000" stroke-linecap="round" stroke-width="3"/><line x1="27.755" y2="12.212" transform="translate(0.245 0.134)" fill="none" stroke="#000" stroke-linecap="round" stroke-width="3"/><path d="M.313-1.12l27.436,14.41" transform="translate(28.034 1.12)" fill="#d87b30" stroke="#000" stroke-linecap="round" stroke-width="3"/><path d="M0,0,.273,23.569" transform="translate(29.312 28.999)" fill="#d87b30" stroke="#000" stroke-linecap="round" stroke-width="3"/></g><g transform="translate(90.209 59.735)"><path d="M50.533,13.194,23.083-.27-4.5,11.7V33.954L24.988,52.013l26.445-14.9Z" transform="translate(4.744 1.536)" fill="#952781"/><line y1="13.322" x2="25.535" transform="translate(30.22 14.566)" fill="none" stroke="#000" stroke-linecap="round" stroke-width="3"/><line y1="13.322" x2="25.535" transform="translate(30.22 40.101)" fill="none" stroke="#000" stroke-linecap="round" stroke-width="3"/><line x1="26.645" y1="14.433" transform="translate(2.465 13.456)" fill="none" stroke="#000" stroke-linecap="round" stroke-width="3"/><line x1="28.865" y1="17.763" transform="translate(0.245 36.342)" fill="none" stroke="#000" stroke-linecap="round" stroke-width="3"/><path d="M-1.9-.418V22.824" transform="translate(1.902 13.41)" fill="#952781" stroke="#000" stroke-linecap="round" stroke-width="3"/><line y2="25.535" transform="translate(55.755 14.566)" fill="none" stroke="#000" stroke-linecap="round" stroke-width="3"/><line x1="27.755" y2="12.212" transform="translate(0.245 0.134)" fill="none" stroke="#000" stroke-linecap="round" stroke-width="3"/><path d="M.313-1.12l27.436,14.41" transform="translate(28.034 1.12)" fill="#952781" stroke="#000" stroke-linecap="round" stroke-width="3"/><path d="M0,0,.273,23.569" transform="translate(29.312 28.999)" fill="#952781" stroke="#000" stroke-linecap="round" stroke-width="3"/></g><g transform="translate(47.326 61.955)"><path d="M50.533,13.194,23.083-.27-4.5,11.7V33.954L24.988,52.013l26.445-14.9Z" transform="translate(4.744 1.536)" fill="#e0d400"/><line y1="13.322" x2="25.535" transform="translate(30.22 14.566)" fill="none" stroke="#000" stroke-linecap="round" stroke-width="3"/><line y1="13.322" x2="25.535" transform="translate(30.22 40.101)" fill="none" stroke="#000" stroke-linecap="round" stroke-width="3"/><line x1="26.645" y1="14.433" transform="translate(2.465 13.456)" fill="none" stroke="#000" stroke-linecap="round" stroke-width="3"/><line x1="28.865" y1="17.763" transform="translate(0.245 36.342)" fill="none" stroke="#000" stroke-linecap="round" stroke-width="3"/><path d="M-1.9-.418V22.824" transform="translate(1.902 13.41)" fill="#e0d400" stroke="#000" stroke-linecap="round" stroke-width="3"/><line y2="25.535" transform="translate(55.755 14.566)" fill="none" stroke="#000" stroke-linecap="round" stroke-width="3"/><line x1="27.755" y2="12.212" transform="translate(0.245 0.134)" fill="none" stroke="#000" stroke-linecap="round" stroke-width="3"/><path d="M.313-1.12l27.436,14.41" transform="translate(28.034 1.12)" fill="#e0d400" stroke="#000" stroke-linecap="round" stroke-width="3"/><path d="M0,0,.273,23.569" transform="translate(29.312 28.999)" fill="#e0d400" stroke="#000" stroke-linecap="round" stroke-width="3"/></g></g></svg>